<svg width="17" height="22" viewBox="0 0 17 22" fill="none" xmlns="http://www.w3.org/2000/svg">
<path d="M11.1491 2.75765L11.0029 2.61251C9.01825 0.642588 7.38096 0.381724 6.29069 0.537804C5.73139 0.617872 5.28639 0.811698 4.98218 0.984936C4.83039 1.07137 4.71517 1.15184 4.64013 1.20864C4.60268 1.237 4.57544 1.25931 4.55888 1.27331C4.5506 1.28031 4.54502 1.28521 4.54217 1.28774L4.54036 1.28936L4.53998 1.2897L11.1491 2.75765ZM11.1491 2.75765H11.3388H11.1491Z" stroke="white"/>
<path d="M3.84289 9.22215C4.46522 9.26363 5.05754 9.28445 5.61553 9.28445C8.38267 9.28445 10.0399 8.76877 11.0329 8.11952C11.1421 8.31689 11.2809 8.49814 11.4459 8.65642C11.6907 8.89156 11.9839 9.06704 12.3024 9.17236C12.233 10.3521 11.7798 12.6416 9.41737 13.8107L9.38679 13.8256C8.5568 14.2284 7.58783 14.2285 6.75779 13.8258C4.4555 12.7036 3.94195 10.4715 3.84289 9.22215Z" stroke="white"/>
<path d="M6.59155 15.2383V15.2107C6.61766 15.2201 6.64383 15.2293 6.67006 15.2383H6.59155ZM9.54018 15.2383H9.47548C9.49709 15.2309 9.51866 15.2234 9.54018 15.2157V15.2383Z" stroke="white"/>
<path d="M6.19385 17.163V16.582H9.93902V17.163H6.19385Z" stroke="white"/>
<path d="M3.63225 18.3926V19.298C3.3597 19.3465 3.10647 19.4773 2.90813 19.6757C2.65362 19.9302 2.51019 20.2751 2.50936 20.6352V20.6364V21.4998H0.507616C0.571173 20.5753 1.02821 19.9038 1.66057 19.3954C2.23547 18.9332 2.9512 18.6122 3.63225 18.3926Z" stroke="white"/>
<path d="M10.1751 18.5048L10.1762 18.5048C10.5412 18.5039 10.8699 18.3256 11.0727 18.0459C11.0997 18.0505 11.1273 18.0553 11.1554 18.0603L11.1554 19.2762H4.97559V18.0603C5.00382 18.0552 5.03144 18.0504 5.05843 18.0459C5.26197 18.3264 5.59199 18.5049 5.95827 18.5048C5.95829 18.5048 5.95832 18.5048 5.95834 18.5048C5.95842 18.5048 5.9585 18.5048 5.95858 18.5048L10.1751 18.5048Z" stroke="white"/>
<path d="M12.2773 20.6313C12.2778 20.6325 12.2783 20.6342 12.2784 20.6371V20.6372V21.5003H3.85278V20.6373C3.85285 20.6284 3.86008 20.6212 3.86905 20.6211H12.2621C12.2652 20.6211 12.2669 20.6216 12.2682 20.6222C12.2698 20.6228 12.2717 20.624 12.2735 20.6259C12.2754 20.6278 12.2766 20.6297 12.2773 20.6313Z" stroke="white"/>
<path d="M12.5 19.2977V18.3925C13.1818 18.6123 13.8977 18.9333 14.4726 19.3956C15.1046 19.9039 15.5613 20.5752 15.6248 21.4998H13.6231L13.6231 20.6364L13.6231 20.636C13.6228 20.2757 13.4797 19.9302 13.225 19.6753L13.2246 19.6749C13.0261 19.4766 12.7727 19.3459 12.5 19.2977Z" stroke="white"/>
<path d="M13.2496 13.1938C13.5462 13.6682 13.9364 14.1166 14.4447 14.4577C14.4235 14.4636 14.402 14.4696 14.3801 14.4756C13.6465 14.6763 12.5101 14.8797 10.884 14.8993V14.4981C11.6881 13.927 12.3442 13.1804 12.8065 12.3214C12.9264 12.6141 13.0722 12.9099 13.2496 13.1938Z" stroke="white"/>
<path d="M2.90157 13.1918C3.07966 12.9067 3.2259 12.6095 3.34602 12.3156C3.80496 13.1685 4.45319 13.9119 5.24699 14.4849V14.8996C3.6216 14.88 2.48966 14.6766 1.76056 14.4761C1.74078 14.4706 1.72128 14.4652 1.70209 14.4598C2.21261 14.1179 2.60418 13.6679 2.90157 13.1918Z" stroke="white"/>
<path d="M3.33802 7.83709C3.44466 7.53326 3.52133 7.13498 3.54229 6.61156L3.54433 6.56048L3.53605 6.51036L3.53604 6.51026L3.53603 6.51019L3.53602 6.51016L3.536 6.51004L3.53574 6.50844L3.53432 6.4994L3.52853 6.46062C3.52354 6.42607 3.51657 6.37507 3.50908 6.31175C3.49401 6.18447 3.47717 6.01056 3.46953 5.82222C3.46277 5.65571 3.46355 5.48588 3.47695 5.33122L10.5741 6.79439C9.82507 7.43095 7.95764 8.2308 3.33802 7.83709Z" stroke="white"/>
<path d="M13.0419 8.44214C13.0404 8.44219 13.0389 8.44222 13.0374 8.44222L13.0419 8.44214ZM13.0419 8.44214L13.0419 8.43993M13.0419 8.44214L12.9274 8.43993C12.8073 8.43278 12.6894 8.41045 12.5763 8.374V7.83283C12.7113 7.90539 12.8636 7.94373 13.0197 7.94242M13.0419 8.43993H13.0763V7.93993C13.0589 7.93993 13.0442 7.94066 13.0331 7.9414C13.0281 7.94173 13.0234 7.9421 13.0197 7.94242M13.0419 8.43993L13.0374 7.94222H13.0372L13.0419 8.43993ZM13.0197 7.94242C13.0163 7.9427 13.0136 7.94294 13.0123 7.94307L13.0117 7.94312C13.0077 7.94348 13.0105 7.9432 13.0143 7.94295C13.0175 7.94274 13.0223 7.94247 13.0284 7.94233L13.0284 7.9423C13.0255 7.94235 13.0226 7.94239 13.0197 7.94242ZM12.0147 8.03357L12.3657 7.6775L12.0147 8.03357ZM12.5763 7.20472L12.9758 7.2867L13.0763 6.79691H12.5763V7.20472ZM11.5913 7.00261L11.6609 7.01688L11.662 7.01711L12.0952 7.106C12.0925 7.07703 12.0912 7.04783 12.0913 7.01849L12.0913 7.01849V7.01688V6.59479L11.5913 7.00261Z" stroke="white"/>
</svg>
