<svg width="24" height="24" viewBox="0 0 24 24" fill="none" xmlns="http://www.w3.org/2000/svg">
<circle cx="12" cy="12" r="12" fill="white"/>
<path d="M15.8944 16.3334C15.8944 16.8401 15.481 17.2267 14.9877 17.2267H7.81437C7.30771 17.2267 6.90771 16.8267 6.90771 16.3334V9.13341C6.90771 8.64008 7.32104 8.24008 7.81437 8.24008H11.481L12.641 7.08008H7.81437C6.66771 7.08008 5.73438 8.00008 5.73438 9.13341V16.3334C5.73438 17.4801 6.66771 18.4001 7.81437 18.4001H15.001C16.1477 18.4001 17.081 17.4801 17.081 16.3334V11.4934L15.921 12.6534V16.3334H15.8944Z" fill="#1C7EBF"/>
<path d="M18.1331 7.62771L16.5064 6.01438C16.3331 5.84104 16.0931 5.73438 15.8531 5.73438C15.5998 5.73438 15.3731 5.82771 15.1998 6.00104L9.19978 12.001C9.03978 12.161 8.94645 12.3744 8.93312 12.601L8.82645 14.321C8.81312 14.5877 8.90645 14.8544 9.09312 15.041C9.26645 15.2144 9.50645 15.3077 9.74645 15.3077C9.75978 15.3077 9.78645 15.3077 9.79978 15.3077L11.5331 15.201C11.7598 15.1877 11.9731 15.0944 12.1331 14.9344L18.1198 8.94771C18.2931 8.77438 18.3864 8.53438 18.3864 8.29438C18.3998 8.04104 18.3064 7.80104 18.1331 7.62771ZM14.3064 8.54771L15.5998 9.84104L12.5998 12.8277L11.3064 11.5344L14.3064 8.54771ZM11.3731 14.0544L9.99978 14.1344L10.0798 12.761L10.4664 12.3744L11.7598 13.6677L11.3731 14.0544ZM16.4131 9.00104L15.1331 7.72104L15.8531 7.00104L17.1464 8.29438L16.4131 9.00104Z" fill="#1C7EBF"/>
</svg>
