<svg width="21" height="21" viewBox="0 0 21 21" fill="none" xmlns="http://www.w3.org/2000/svg">
<path d="M9.92567 0H11.0741C11.431 0.0451168 11.7919 0.0779297 12.1446 0.135354C14.38 0.504501 16.3117 1.48068 17.9156 3.08443C19.5562 4.72916 20.5488 6.71027 20.8811 9.0155C20.9262 9.31902 20.959 9.62255 21 9.92604V11.0745C20.9877 11.1401 20.9672 11.2057 20.9631 11.2714C20.8441 12.9571 20.356 14.5281 19.4578 15.9556C17.7187 18.7159 15.2371 20.369 12.0053 20.8775C11.6977 20.9267 11.386 20.9595 11.0743 20.9964H9.9258C9.86838 20.9841 9.80686 20.9636 9.74944 20.9595C7.96933 20.8365 6.32047 20.3033 4.83575 19.323C2.19021 17.5798 0.610953 15.1394 0.118948 12.0017C0.0697282 11.6982 0.041018 11.3865 0 11.0748V9.92633C0.0123046 9.8607 0.032813 9.79507 0.0369148 9.72945C0.114844 8.6056 0.35274 7.51047 0.807999 6.48097C2.40353 2.90437 5.12692 0.771531 8.99472 0.119398C9.30234 0.0660765 9.61408 0.0414687 9.92578 0.000450755L9.92567 0ZM7.86667 14.9668C7.85437 15.057 7.85027 15.1022 7.84617 15.1473C7.80515 15.6682 7.79284 16.1891 7.99382 16.6813C8.4409 17.7805 9.08486 18.7403 9.99132 19.5196C10.2784 19.7657 10.7255 19.7657 11.0126 19.5196C11.837 18.8141 12.4359 17.9405 12.8912 16.9643C13.0921 16.5336 13.1906 16.0865 13.1742 15.6149C13.1701 15.4098 13.1742 15.2006 13.1742 14.9832C14.5728 15.5082 16.0986 15.7215 17.3618 16.5993C20.4709 13.1744 20.598 7.58377 16.9804 3.98673C13.3545 0.381398 7.49353 0.422424 3.95348 4.04825C0.348154 7.74381 0.614782 13.3015 3.64176 16.5993C4.90508 15.7174 6.43086 15.5082 7.86656 14.9668L7.86667 14.9668Z" fill="#C4C4C4"/>
<path d="M6.45997 8.63822C6.41896 8.17475 6.36974 7.71537 6.34513 7.25599C6.31642 6.71456 6.36974 6.18138 6.5379 5.66046C6.75119 5.0042 7.16135 4.49971 7.71917 4.10595C8.68713 3.42918 9.77817 3.22409 10.9307 3.30614C11.7839 3.36356 12.5755 3.60966 13.2851 4.11008C14.1382 4.70892 14.5894 5.54154 14.6304 6.57104C14.6591 7.25603 14.5976 7.9451 14.573 8.64647C14.9585 8.77362 15.098 8.95409 15.0857 9.43398C15.0693 10.0041 14.8806 10.5127 14.4663 10.9311C14.4007 10.9967 14.3515 11.0828 14.3146 11.169C13.9536 11.9237 13.5516 12.6496 12.9774 13.269C12.3253 13.9744 11.5378 14.4174 10.5575 14.4338C9.5157 14.4543 8.68716 13.999 8.00218 13.2485C7.44436 12.6373 7.04239 11.9237 6.68967 11.1813C6.63634 11.0746 6.56252 10.9721 6.48458 10.8818C6.07853 10.4266 5.88574 9.88925 5.92268 9.28632C5.94729 8.86796 6.09084 8.72028 6.45998 8.63827L6.45997 8.63822ZM13.9822 7.76866C13.5392 7.73174 13.166 7.70713 12.7927 7.66612C11.2915 7.51436 9.92978 7.04676 8.83454 5.95576C8.78532 5.90654 8.67458 5.88193 8.60075 5.89424C8.07165 5.98037 7.70659 6.31672 7.37437 6.71456C7.02573 7.13291 6.99704 7.60459 7.06675 8.105C7.13648 8.60128 7.23082 9.0976 7.31285 9.59388C7.23082 9.43802 7.16929 9.26985 7.06265 9.13041C6.98882 9.03197 6.80835 8.89662 6.75913 8.92533C6.64018 8.99506 6.50483 9.13861 6.48842 9.26986C6.4351 9.72924 6.57865 10.1394 6.88217 10.5003C7.00112 10.6439 7.12007 10.7956 7.2021 10.9638C7.50562 11.6036 7.82963 12.2353 8.25211 12.8136C9.30621 14.2574 11.7221 14.2492 12.7638 12.7931C13.1904 12.1943 13.5267 11.5503 13.8302 10.8859C13.8794 10.7833 13.9287 10.6685 14.0148 10.5947C14.3101 10.3363 14.4537 10.004 14.5111 9.63079C14.5357 9.47493 14.5316 9.29445 14.4824 9.14681C14.3798 8.84739 14.1501 8.82278 13.9697 9.08118C13.8589 9.24114 13.7769 9.41752 13.6949 9.56929C13.7851 8.98687 13.8835 8.38394 13.982 7.76867L13.9822 7.76866Z" fill="#C4C4C4"/>
<path d="M11.5296 15.5822C11.5009 15.6232 11.4804 15.6765 11.4435 15.7134C11.2917 15.8693 11.1482 16.0374 10.98 16.1728C10.8529 16.2753 10.8447 16.3574 10.9062 16.4968C11.1031 16.948 11.2835 17.4033 11.4763 17.8544C11.5296 17.9734 11.5378 18.0759 11.4353 18.1662C11.1564 18.4287 10.8816 18.6912 10.5986 18.9455C10.5617 18.9783 10.4468 18.9865 10.4099 18.9578C10.1187 18.7035 9.8357 18.441 9.55269 18.1743C9.45425 18.0841 9.46246 17.9775 9.51577 17.8585C9.71675 17.3951 9.90132 16.9275 10.1023 16.464C10.1515 16.345 10.1269 16.2876 10.0326 16.2097C9.86032 16.0579 9.70036 15.8856 9.5404 15.7216C9.44196 15.6231 9.47477 15.537 9.5609 15.4426C9.77419 15.2171 9.99977 15.0366 10.3402 15.0981C10.4879 15.1227 10.6396 15.1145 10.7914 15.1022C11.1359 15.0694 11.3 15.3155 11.4927 15.5247C11.5132 15.5329 11.5173 15.5534 11.5297 15.5821L11.5296 15.5822Z" fill="#C4C4C4"/>
</svg>
