<svg width="28" height="28" viewBox="0 0 28 28" fill="none" xmlns="http://www.w3.org/2000/svg">
<path d="M10.5 5.83424C10.1906 5.83424 9.89385 5.95716 9.67506 6.17595C9.45627 6.39474 9.33335 6.69149 9.33335 7.00091C9.33335 7.31033 9.45627 7.60707 9.67506 7.82586C9.89385 8.04466 10.1906 8.16757 10.5 8.16757C10.8094 8.16757 11.1062 8.04466 11.325 7.82586C11.5438 7.60707 11.6667 7.31033 11.6667 7.00091C11.6667 6.69149 11.5438 6.39474 11.325 6.17595C11.1062 5.95716 10.8094 5.83424 10.5 5.83424ZM7.19835 5.83424C7.43939 5.15112 7.88638 4.55958 8.47772 4.14116C9.06906 3.72274 9.77562 3.49805 10.5 3.49805C11.2244 3.49805 11.931 3.72274 12.5223 4.14116C13.1137 4.55958 13.5606 5.15112 13.8017 5.83424H22.1667C22.4761 5.83424 22.7729 5.95716 22.9916 6.17595C23.2104 6.39474 23.3334 6.69149 23.3334 7.00091C23.3334 7.31033 23.2104 7.60707 22.9916 7.82586C22.7729 8.04466 22.4761 8.16757 22.1667 8.16757H13.8017C13.5606 8.85069 13.1137 9.44223 12.5223 9.86065C11.931 10.2791 11.2244 10.5038 10.5 10.5038C9.77562 10.5038 9.06906 10.2791 8.47772 9.86065C7.88638 9.44223 7.43939 8.85069 7.19835 8.16757H5.83335C5.52393 8.16757 5.22719 8.04466 5.0084 7.82586C4.7896 7.60707 4.66669 7.31033 4.66669 7.00091C4.66669 6.69149 4.7896 6.39474 5.0084 6.17595C5.22719 5.95716 5.52393 5.83424 5.83335 5.83424H7.19835ZM17.5 12.8342C17.1906 12.8342 16.8939 12.9572 16.6751 13.1759C16.4563 13.3947 16.3334 13.6915 16.3334 14.0009C16.3334 14.3103 16.4563 14.6071 16.6751 14.8259C16.8939 15.0447 17.1906 15.1676 17.5 15.1676C17.8094 15.1676 18.1062 15.0447 18.325 14.8259C18.5438 14.6071 18.6667 14.3103 18.6667 14.0009C18.6667 13.6915 18.5438 13.3947 18.325 13.1759C18.1062 12.9572 17.8094 12.8342 17.5 12.8342ZM14.1984 12.8342C14.4394 12.1511 14.8864 11.5596 15.4777 11.1412C16.0691 10.7227 16.7756 10.498 17.5 10.498C18.2244 10.498 18.931 10.7227 19.5223 11.1412C20.1137 11.5596 20.5606 12.1511 20.8017 12.8342H22.1667C22.4761 12.8342 22.7729 12.9572 22.9916 13.1759C23.2104 13.3947 23.3334 13.6915 23.3334 14.0009C23.3334 14.3103 23.2104 14.6071 22.9916 14.8259C22.7729 15.0447 22.4761 15.1676 22.1667 15.1676H20.8017C20.5606 15.8507 20.1137 16.4422 19.5223 16.8607C18.931 17.2791 18.2244 17.5038 17.5 17.5038C16.7756 17.5038 16.0691 17.2791 15.4777 16.8607C14.8864 16.4422 14.4394 15.8507 14.1984 15.1676H5.83335C5.52393 15.1676 5.22719 15.0447 5.0084 14.8259C4.7896 14.6071 4.66669 14.3103 4.66669 14.0009C4.66669 13.6915 4.7896 13.3947 5.0084 13.1759C5.22719 12.9572 5.52393 12.8342 5.83335 12.8342H14.1984ZM10.5 19.8342C10.1906 19.8342 9.89385 19.9572 9.67506 20.1759C9.45627 20.3947 9.33335 20.6915 9.33335 21.0009C9.33335 21.3103 9.45627 21.6071 9.67506 21.8259C9.89385 22.0447 10.1906 22.1676 10.5 22.1676C10.8094 22.1676 11.1062 22.0447 11.325 21.8259C11.5438 21.6071 11.6667 21.3103 11.6667 21.0009C11.6667 20.6915 11.5438 20.3947 11.325 20.1759C11.1062 19.9572 10.8094 19.8342 10.5 19.8342ZM7.19835 19.8342C7.43939 19.1511 7.88638 18.5596 8.47772 18.1412C9.06906 17.7227 9.77562 17.498 10.5 17.498C11.2244 17.498 11.931 17.7227 12.5223 18.1412C13.1137 18.5596 13.5606 19.1511 13.8017 19.8342H22.1667C22.4761 19.8342 22.7729 19.9572 22.9916 20.1759C23.2104 20.3947 23.3334 20.6915 23.3334 21.0009C23.3334 21.3103 23.2104 21.6071 22.9916 21.8259C22.7729 22.0447 22.4761 22.1676 22.1667 22.1676H13.8017C13.5606 22.8507 13.1137 23.4422 12.5223 23.8607C11.931 24.2791 11.2244 24.5038 10.5 24.5038C9.77562 24.5038 9.06906 24.2791 8.47772 23.8607C7.88638 23.4422 7.43939 22.8507 7.19835 22.1676H5.83335C5.52393 22.1676 5.22719 22.0447 5.0084 21.8259C4.7896 21.6071 4.66669 21.3103 4.66669 21.0009C4.66669 20.6915 4.7896 20.3947 5.0084 20.1759C5.22719 19.9572 5.52393 19.8342 5.83335 19.8342H7.19835Z" fill="#1C7EBF"/>
</svg>
