<svg width="23" height="22" viewBox="0 0 23 22" fill="none" xmlns="http://www.w3.org/2000/svg">
<path d="M22.0078 10.848L22.0077 10.8481C22.1736 11.0242 22.2589 11.2383 22.2493 11.4788C22.2399 11.7118 22.1487 11.918 21.9873 12.0894L21.9782 12.099L21.978 12.0987C21.8066 12.2625 21.5939 12.3438 21.3556 12.3438C21.1024 12.3438 20.8792 12.2548 20.7063 12.0728L20.2566 11.6231V20.375C20.2566 20.6168 20.1608 20.8274 19.9851 20.9952C19.8097 21.1628 19.5948 21.25 19.3525 21.25H14.774C14.5318 21.25 14.3169 21.1628 14.1414 20.9952C13.9658 20.8274 13.87 20.6168 13.87 20.375V14.375H9.15705L9.13743 20.375C9.13743 20.3752 9.13743 20.3754 9.13743 20.3756L9.13743 20.3758L8.88743 20.375C8.88743 20.4141 8.88062 20.4596 8.86699 20.5117C8.85336 20.5638 8.83633 20.6094 8.81589 20.6484C8.79545 20.6875 8.77161 20.7233 8.74435 20.7559C8.7171 20.7884 8.68303 20.821 8.64216 20.8535C8.60128 20.8861 8.5604 20.9121 8.51952 20.9316C8.47864 20.9512 8.43435 20.9674 8.38666 20.9805C8.33897 20.9935 8.28787 21 8.23336 21H3.67532C3.48455 21 3.32785 20.9382 3.20521 20.8145C3.08257 20.6908 3.02125 20.5443 3.02125 20.375L22.0078 10.848ZM22.0078 10.848L22.0024 10.8427L12.1781 1.02555C12.0973 0.93215 11.9974 0.862361 11.8823 0.816561C11.7688 0.771344 11.6485 0.75 11.5241 0.75C11.2783 0.75 11.0608 0.843038 10.8813 1.01456L10.8813 1.01453L10.8777 1.0181L1.00534 10.8423L1.00032 10.8473L0.995586 10.8526C0.89093 10.9693 0.81494 11.1016 0.776309 11.2492C0.736394 11.4018 0.742778 11.5567 0.789451 11.7083C0.835761 11.8588 0.916021 11.9904 1.02941 12.0987L1.03936 12.1082L1.0503 12.1166C1.13705 12.1829 1.23206 12.2364 1.33448 12.2772C1.44923 12.3229 1.56933 12.343 1.69208 12.3332C1.80051 12.3246 1.9067 12.2988 2.00999 12.2577C2.11664 12.2152 2.21339 12.1568 2.29462 12.0792L2.29463 12.0792L2.29664 12.0772L2.77125 11.6134L22.0078 10.848ZM18.4485 19.5V9.88672C18.4485 9.86325 18.4494 9.83987 18.4514 9.81658L11.5239 2.89609L4.57651 9.81682C4.57842 9.84003 4.57939 9.86333 4.57939 9.88672V19.5H7.33011L7.34973 13.5C7.34973 13.4998 7.34973 13.4996 7.34973 13.4994L7.34973 13.4992L7.59973 13.5L18.4485 19.5ZM18.4485 19.5H15.6781H18.4485Z" fill="#C4C4C4" stroke="#C4C4C4" stroke-width="0.5"/>
</svg>
