<svg width="24" height="24" viewBox="0 0 24 24" fill="none" xmlns="http://www.w3.org/2000/svg">
<path d="M16.4 5.83945C19.8021 5.83945 22.56 4.85448 22.56 3.63945C22.56 2.42443 19.8021 1.43945 16.4 1.43945C12.9979 1.43945 10.24 2.42443 10.24 3.63945C10.24 4.85448 12.9979 5.83945 16.4 5.83945Z" stroke="#1C7EBF" stroke-width="2" stroke-miterlimit="10" stroke-linecap="round" stroke-linejoin="round"/>
<path d="M10.24 4.08008C10.24 4.48136 10.24 6.3188 10.24 6.72008C10.24 7.93492 12.997 8.92008 16.4 8.92008C19.803 8.92008 22.56 7.93492 22.56 6.72008C22.56 6.3188 22.56 4.48136 22.56 4.08008" stroke="#1C7EBF" stroke-width="2" stroke-miterlimit="10" stroke-linecap="round" stroke-linejoin="round"/>
<path d="M13.562 11.7533C14.4112 11.9108 15.3766 12.0002 16.4 12.0002C19.803 12.0002 22.56 11.015 22.56 9.80016C22.56 9.39888 22.56 7.56144 22.56 7.16016" stroke="#1C7EBF" stroke-width="2" stroke-miterlimit="10" stroke-linecap="round" stroke-linejoin="round"/>
<path d="M10.24 7.16016C10.24 7.56144 10.24 9.03896 10.24 9.03896" stroke="#1C7EBF" stroke-width="2" stroke-miterlimit="10" stroke-linecap="round" stroke-linejoin="round"/>
<path d="M13.771 14.8704C14.5683 15.005 15.4593 15.0802 16.4 15.0802C19.803 15.0802 22.56 14.0955 22.56 12.8802C22.56 12.479 22.56 10.6415 22.56 10.2402" stroke="#1C7EBF" stroke-width="2" stroke-miterlimit="10" stroke-linecap="round" stroke-linejoin="round"/>
<path d="M13.7373 17.9447C14.5429 18.0829 15.4463 18.1603 16.4002 18.1603C19.8031 18.1603 22.5602 17.1756 22.5602 15.9603C22.5602 15.559 22.5602 13.7216 22.5602 13.3203" stroke="#1C7EBF" stroke-width="2" stroke-miterlimit="10" stroke-linecap="round" stroke-linejoin="round"/>
<path d="M7.59994 13.3199C11.002 13.3199 13.7599 12.3349 13.7599 11.1199C13.7599 9.9049 11.002 8.91992 7.59994 8.91992C4.19787 8.91992 1.43994 9.9049 1.43994 11.1199C1.43994 12.3349 4.19787 13.3199 7.59994 13.3199Z" stroke="#1C7EBF" stroke-width="2" stroke-miterlimit="10" stroke-linecap="round" stroke-linejoin="round"/>
<path d="M1.43994 11.5605C1.43994 11.9618 1.43994 13.7993 1.43994 14.2005C1.43994 15.4158 4.19698 16.4005 7.59994 16.4005C11.0029 16.4005 13.7599 15.4158 13.7599 14.2005C13.7599 13.7993 13.7599 11.9618 13.7599 11.5605" stroke="#1C7EBF" stroke-width="2" stroke-miterlimit="10" stroke-linecap="round" stroke-linejoin="round"/>
<path d="M1.43994 14.6406C1.43994 15.0419 1.43994 16.8793 1.43994 17.2806C1.43994 18.4959 4.19698 19.4806 7.59994 19.4806C11.0029 19.4806 13.7599 18.4959 13.7599 17.2806C13.7599 16.8793 13.7599 15.0419 13.7599 14.6406" stroke="#1C7EBF" stroke-width="2" stroke-miterlimit="10" stroke-linecap="round" stroke-linejoin="round"/>
<path d="M1.43994 17.7207C1.43994 18.122 1.43994 19.9594 1.43994 20.3607C1.43994 21.576 4.19698 22.5607 7.59994 22.5607C11.0029 22.5607 13.7599 21.576 13.7599 20.3607C13.7599 19.9594 13.7599 18.122 13.7599 17.7207" stroke="#1C7EBF" stroke-width="2" stroke-miterlimit="10" stroke-linecap="round" stroke-linejoin="round"/>
</svg>
