<svg width="22" height="22" viewBox="0 0 22 22" fill="none" xmlns="http://www.w3.org/2000/svg">
<path d="M4.04058 2.48291C8.36085 -1.05801 14.7456 -0.811605 18.7788 3.22211C23.0737 7.51762 23.0737 14.4828 18.7788 18.7784C14.4838 23.0739 7.51945 23.0739 3.22447 18.7784C1.90643 17.4619 0.944537 15.8321 0.429123 14.0419C-0.0862914 12.2516 -0.138316 10.3598 0.277935 8.54393L0.362625 8.19963L2.48976 8.76063C1.96243 10.7651 2.15947 12.8914 3.04616 14.7649C3.93286 16.6383 5.45229 18.1386 7.33669 19.0013C9.22108 19.864 11.3495 20.0338 13.3468 19.4808C15.3441 18.9278 17.0822 17.6874 18.2546 15.9782C19.427 14.2691 19.9586 12.2009 19.7557 10.1381C19.5528 8.07536 18.6283 6.15045 17.1453 4.70261C15.6623 3.25477 13.7159 2.37694 11.6491 2.22382C9.5823 2.0707 7.52779 2.65212 5.84765 3.86561L5.60458 4.04821L6.72315 5.16692L1.66817 6.33292L2.83402 1.2773L4.04058 2.48291ZM12.1015 4.40021V6.60022H14.8512V8.80023H8.80189C8.66447 8.79998 8.53193 8.85119 8.43038 8.94379C8.32882 9.03639 8.26561 9.16366 8.2532 9.30053C8.24078 9.43741 8.28005 9.57398 8.36329 9.68335C8.44652 9.79271 8.56768 9.86695 8.7029 9.89143L8.80189 9.90023H13.2014C13.9306 9.90023 14.63 10.19 15.1457 10.7057C15.6613 11.2214 15.951 11.9209 15.951 12.6502C15.951 13.3796 15.6613 14.0791 15.1457 14.5948C14.63 15.1105 13.9306 15.4003 13.2014 15.4003H12.1015V17.6003H9.90176V15.4003H7.15209V13.2002H13.2014C13.3388 13.2005 13.4713 13.1493 13.5729 13.0567C13.6744 12.9641 13.7376 12.8368 13.75 12.6999C13.7625 12.5631 13.7232 12.4265 13.64 12.3171C13.5567 12.2078 13.4356 12.1335 13.3003 12.109L13.2014 12.1002H8.80189C8.07264 12.1002 7.37325 11.8105 6.85759 11.2948C6.34192 10.7791 6.05223 10.0796 6.05223 9.35023C6.05223 8.62088 6.34192 7.92141 6.85759 7.40568C7.37325 6.88995 8.07264 6.60022 8.80189 6.60022H9.90176V4.40021H12.1015Z" fill="#C4C4C4"/>
</svg>
