<svg width="24" height="23" viewBox="0 0 24 23" fill="none" xmlns="http://www.w3.org/2000/svg">
<mask id="path-1-inside-1_331_718" fill="white">
<path d="M17.1667 0.333984C17.7201 0.333948 18.2526 0.545687 18.6548 0.925765C19.0571 1.30584 19.2987 1.82545 19.33 2.37798L19.3333 2.50065V4.33398H20.5C22.4333 4.33398 24 5.90065 24 7.83398V16.834C24 17.4086 23.7717 17.9597 23.3654 18.366C22.9591 18.7724 22.408 19.0007 21.8333 19.0007H19.3333V20.1673C19.3333 20.742 19.1051 21.2931 18.6987 21.6994C18.2924 22.1057 17.7413 22.334 17.1667 22.334H6.83333C6.2587 22.334 5.7076 22.1057 5.30127 21.6994C4.89494 21.2931 4.66667 20.742 4.66667 20.1673V19.0007H2.16667C1.59203 19.0007 1.04093 18.7724 0.634602 18.366C0.228273 17.9597 0 17.4086 0 16.834V7.83398C0 5.90065 1.56667 4.33398 3.5 4.33398H4.66667V2.50065C4.66663 1.94723 4.87837 1.41477 5.25845 1.0125C5.63853 0.610229 6.15813 0.36865 6.71067 0.337318L6.83333 0.333984H17.1667ZM6.33333 20.1673C6.33333 20.4433 6.55733 20.6673 6.83333 20.6673H17.1667C17.2993 20.6673 17.4265 20.6146 17.5202 20.5209C17.614 20.4271 17.6667 20.2999 17.6667 20.1673V14.5007C17.6667 14.368 17.614 14.2409 17.5202 14.1471C17.4265 14.0533 17.2993 14.0007 17.1667 14.0007H6.83333C6.70073 14.0007 6.57355 14.0533 6.47978 14.1471C6.38601 14.2409 6.33333 14.368 6.33333 14.5007V20.1673ZM17.1667 2.00065H6.83333C6.71251 2.00066 6.59577 2.04441 6.50471 2.12383C6.41365 2.20325 6.35443 2.31295 6.338 2.43265L6.33333 2.50065V4.33398H17.6667V2.50065C17.6667 2.37983 17.6229 2.26309 17.5435 2.17203C17.4641 2.08097 17.3544 2.02175 17.2347 2.00532L17.1667 2.00065Z"/>
</mask>
<path d="M17.1667 0.333984V1.33398H17.1667L17.1667 0.333984ZM19.33 2.37798L20.3296 2.35081L20.3292 2.33608L20.3284 2.32137L19.33 2.37798ZM19.3333 2.50065H20.3333V2.48706L20.333 2.47348L19.3333 2.50065ZM19.3333 4.33398H18.3333V5.33398H19.3333V4.33398ZM24 16.834H25H24ZM21.8333 19.0007V20.0007V19.0007ZM19.3333 19.0007V18.0007H18.3333V19.0007H19.3333ZM19.3333 20.1673H20.3333H19.3333ZM17.1667 22.334V23.334V22.334ZM6.83333 22.334V23.334V22.334ZM4.66667 20.1673H5.66667H4.66667ZM4.66667 19.0007H5.66667V18.0007H4.66667V19.0007ZM2.16667 19.0007V20.0007V19.0007ZM4.66667 4.33398V5.33398H5.66667V4.33398H4.66667ZM4.66667 2.50065H5.66667V2.50059L4.66667 2.50065ZM6.71067 0.337318L6.6835 -0.662313L6.66877 -0.661913L6.65405 -0.661078L6.71067 0.337318ZM6.83333 0.333984V-0.666016H6.81975L6.80617 -0.665647L6.83333 0.333984ZM17.6667 20.1673H16.6667H17.6667ZM17.1667 2.00065L17.2351 1.003L17.2009 1.00065H17.1667V2.00065ZM6.83333 2.00065V1.00065L6.83329 1.00065L6.83333 2.00065ZM6.338 2.43265L5.34729 2.29665L5.34267 2.3303L5.34035 2.36419L6.338 2.43265ZM6.33333 2.50065L5.33568 2.43219L5.33333 2.46638V2.50065H6.33333ZM6.33333 4.33398H5.33333V5.33398H6.33333V4.33398ZM17.6667 4.33398V5.33398H18.6667V4.33398H17.6667ZM17.6667 2.50065H18.6667V2.50061L17.6667 2.50065ZM17.2347 2.00532L17.3707 1.01461L17.337 1.00999L17.3031 1.00766L17.2347 2.00532ZM17.1667 1.33398C17.4647 1.33396 17.7514 1.44798 17.968 1.65264L19.3416 0.198895C18.7537 -0.356604 17.9755 -0.666069 17.1666 -0.666016L17.1667 1.33398ZM17.968 1.65264C18.1847 1.85729 18.3147 2.13708 18.3316 2.4346L20.3284 2.32137C20.2826 1.51382 19.9295 0.754395 19.3416 0.198895L17.968 1.65264ZM18.3304 2.40515L18.3337 2.52782L20.333 2.47348L20.3296 2.35081L18.3304 2.40515ZM18.3333 2.50065V4.33398H20.3333V2.50065H18.3333ZM19.3333 5.33398H20.5V3.33398H19.3333V5.33398ZM20.5 5.33398C21.8811 5.33398 23 6.45294 23 7.83398H25C25 5.34837 22.9856 3.33398 20.5 3.33398V5.33398ZM23 7.83398V16.834H25V7.83398H23ZM23 16.834C23 17.1434 22.8771 17.4401 22.6583 17.6589L24.0725 19.0732C24.6664 18.4793 25 17.6738 25 16.834H23ZM22.6583 17.6589C22.4395 17.8777 22.1428 18.0007 21.8333 18.0007V20.0007C22.6732 20.0007 23.4786 19.667 24.0725 19.0732L22.6583 17.6589ZM21.8333 18.0007H19.3333V20.0007H21.8333V18.0007ZM18.3333 19.0007V20.1673H20.3333V19.0007H18.3333ZM18.3333 20.1673C18.3333 20.4767 18.2104 20.7735 17.9916 20.9923L19.4058 22.4065C19.9997 21.8126 20.3333 21.0072 20.3333 20.1673H18.3333ZM17.9916 20.9923C17.7728 21.2111 17.4761 21.334 17.1667 21.334V23.334C18.0065 23.334 18.812 23.0004 19.4058 22.4065L17.9916 20.9923ZM17.1667 21.334H6.83333V23.334H17.1667V21.334ZM6.83333 21.334C6.52392 21.334 6.22717 21.2111 6.00838 20.9923L4.59416 22.4065C5.18803 23.0004 5.99348 23.334 6.83333 23.334V21.334ZM6.00838 20.9923C5.78958 20.7735 5.66667 20.4767 5.66667 20.1673H3.66667C3.66667 21.0072 4.0003 21.8126 4.59416 22.4065L6.00838 20.9923ZM5.66667 20.1673V19.0007H3.66667V20.1673H5.66667ZM4.66667 18.0007H2.16667V20.0007H4.66667V18.0007ZM2.16667 18.0007C1.85725 18.0007 1.5605 17.8777 1.34171 17.6589L-0.0725048 19.0732C0.52136 19.667 1.32681 20.0007 2.16667 20.0007V18.0007ZM1.34171 17.6589C1.12292 17.4401 1 17.1434 1 16.834H-1C-1 17.6738 -0.66637 18.4793 -0.0725048 19.0732L1.34171 17.6589ZM1 16.834V7.83398H-1V16.834H1ZM1 7.83398C1 6.45294 2.11895 5.33398 3.5 5.33398V3.33398C1.01438 3.33398 -1 5.34837 -1 7.83398H1ZM3.5 5.33398H4.66667V3.33398H3.5V5.33398ZM5.66667 4.33398V2.50065H3.66667V4.33398H5.66667ZM5.66667 2.50059C5.66665 2.20259 5.78066 1.91588 5.98532 1.69927L4.53158 0.325722C3.97608 0.913653 3.66661 1.69186 3.66667 2.50072L5.66667 2.50059ZM5.98532 1.69927C6.18998 1.48267 6.46976 1.35259 6.76728 1.33571L6.65405 -0.661078C5.8465 -0.615285 5.08708 -0.262209 4.53158 0.325722L5.98532 1.69927ZM6.73783 1.33695L6.8605 1.33362L6.80617 -0.665647L6.6835 -0.662313L6.73783 1.33695ZM6.83333 1.33398H17.1667V-0.666016H6.83333V1.33398ZM5.33333 20.1673C5.33333 20.9956 6.00505 21.6673 6.83333 21.6673V19.6673C7.10962 19.6673 7.33333 19.891 7.33333 20.1673H5.33333ZM6.83333 21.6673H17.1667V19.6673H6.83333V21.6673ZM17.1667 21.6673C17.5645 21.6673 17.946 21.5093 18.2273 21.228L16.8131 19.8138C16.9069 19.72 17.0341 19.6673 17.1667 19.6673V21.6673ZM18.2273 21.228C18.5086 20.9467 18.6667 20.5651 18.6667 20.1673H16.6667C16.6667 20.0347 16.7193 19.9075 16.8131 19.8138L18.2273 21.228ZM18.6667 20.1673V14.5007H16.6667V20.1673H18.6667ZM18.6667 14.5007C18.6667 14.1028 18.5086 13.7213 18.2273 13.44L16.8131 14.8542C16.7193 14.7604 16.6667 14.6333 16.6667 14.5007H18.6667ZM18.2273 13.44C17.946 13.1587 17.5645 13.0007 17.1667 13.0007V15.0007C17.0341 15.0007 16.9069 14.948 16.8131 14.8542L18.2273 13.44ZM17.1667 13.0007H6.83333V15.0007H17.1667V13.0007ZM6.83333 13.0007C6.43551 13.0007 6.05398 13.1587 5.77267 13.44L7.18689 14.8542C7.09312 14.948 6.96594 15.0007 6.83333 15.0007V13.0007ZM5.77267 13.44C5.49137 13.7213 5.33333 14.1028 5.33333 14.5007H7.33333C7.33333 14.6333 7.28065 14.7604 7.18689 14.8542L5.77267 13.44ZM5.33333 14.5007V20.1673H7.33333V14.5007H5.33333ZM17.1667 1.00065H6.83333V3.00065H17.1667V1.00065ZM6.83329 1.00065C6.47082 1.00067 6.12061 1.13194 5.84743 1.37019L7.162 2.87747C7.07094 2.95689 6.9542 3.00065 6.83338 3.00065L6.83329 1.00065ZM5.84743 1.37019C5.57425 1.60843 5.39659 1.93754 5.34729 2.29665L7.32871 2.56865C7.31228 2.68835 7.25305 2.79806 7.162 2.87747L5.84743 1.37019ZM5.34035 2.36419L5.33568 2.43219L7.33099 2.56912L7.33565 2.50112L5.34035 2.36419ZM5.33333 2.50065V4.33398H7.33333V2.50065H5.33333ZM6.33333 5.33398H17.6667V3.33398H6.33333V5.33398ZM18.6667 4.33398V2.50065H16.6667V4.33398H18.6667ZM18.6667 2.50061C18.6667 2.13813 18.5354 1.78792 18.2971 1.51475L16.7898 2.82931C16.7104 2.73826 16.6667 2.62152 16.6667 2.50069L18.6667 2.50061ZM18.2971 1.51475C18.0589 1.24157 17.7298 1.06391 17.3707 1.01461L17.0987 2.99603C16.979 2.97959 16.8693 2.92037 16.7898 2.82931L18.2971 1.51475ZM17.3031 1.00766L17.2351 1.003L17.0982 2.9983L17.1662 3.00297L17.3031 1.00766Z" fill="white" mask="url(#path-1-inside-1_331_718)"/>
</svg>
