<svg width="21" height="14" viewBox="0 0 21 14" fill="none" xmlns="http://www.w3.org/2000/svg">
<path d="M10.0586 0C8.56447 0 7.34708 1.33137 7.34708 2.96542C7.34708 4.59947 8.56447 5.93149 10.0586 5.93149C11.5528 5.93149 12.7735 4.59943 12.7735 2.96542C12.7735 1.33142 11.5527 0 10.0586 0ZM10.0586 0.758753C11.1778 0.758753 12.079 1.7414 12.079 2.96542C12.079 4.1894 11.1778 5.17495 10.0586 5.17495C8.93943 5.17495 8.04087 4.18927 8.04087 2.96542C8.04087 1.74145 8.93939 0.758753 10.0586 0.758753ZM3.71338 1.68278C2.4102 1.68278 1.34675 2.84801 1.34675 4.27321C1.34675 5.69841 2.41004 6.86142 3.71338 6.86142C5.01656 6.86142 6.07926 5.69858 6.07926 4.27321C6.07926 2.84801 5.01656 1.68278 3.71338 1.68278ZM16.407 1.68278C15.1038 1.68278 14.0384 2.84801 14.0384 4.27321C14.0384 5.69841 15.1038 6.86142 16.407 6.86142C17.7102 6.86142 18.7729 5.69858 18.7729 4.27321C18.7729 2.84801 17.7102 1.68278 16.407 1.68278ZM3.71338 2.44223C4.64164 2.44223 5.3876 3.25787 5.3876 4.27321C5.3876 5.28838 4.6418 6.10185 3.71338 6.10185C2.78513 6.10185 2.04114 5.28838 2.04114 4.27321C2.04114 3.25804 2.78497 2.44223 3.71338 2.44223ZM16.407 2.44223C17.3353 2.44223 18.0793 3.25787 18.0793 4.27321C18.0793 5.28838 17.3354 6.10185 16.407 6.10185C15.4788 6.10185 14.7322 5.28838 14.7322 4.27321C14.7322 3.25804 15.4788 2.44223 16.407 2.44223ZM10.0586 6.49158C8.52609 6.49158 7.18556 7.37178 6.42703 8.69296C5.74901 7.899 4.78579 7.39853 3.7135 7.39853C1.66265 7.39853 0 9.21668 0 11.4597V13.6213C0.000309709 13.83 0.154708 13.9992 0.345501 14H19.7745C19.9653 13.9992 20.1197 13.83 20.12 13.6213V11.4599C20.12 9.21681 18.458 7.39866 16.4071 7.39866C15.3341 7.39866 14.369 7.89948 13.691 8.69465C12.9326 7.3726 11.5918 6.49171 10.0588 6.49171L10.0586 6.49158ZM9.71312 7.26898V10.2581C9.71111 10.36 9.74673 10.4588 9.81208 10.5318C9.87727 10.6046 9.96663 10.6458 10.06 10.6458C10.1534 10.6458 10.2428 10.6046 10.3081 10.5318C10.3733 10.4588 10.4089 10.36 10.4069 10.2581V7.26898C12.2391 7.45816 13.6563 9.12589 13.6563 11.182V13.2405H6.46383V11.182C6.46383 9.12519 7.88035 7.45715 9.7132 7.26898H9.71312ZM16.3969 8.1588V10.3981C16.3949 10.5001 16.4305 10.5988 16.4959 10.6718C16.5611 10.7446 16.6506 10.7858 16.7438 10.7858C16.8372 10.7858 16.9266 10.7446 16.9919 10.6718C17.0571 10.5988 17.0929 10.5001 17.0907 10.3981V8.24413C18.4346 8.57981 19.4262 9.88239 19.4262 11.4599V13.2404H14.3481V11.1819C14.3481 10.5586 14.2345 9.96602 14.0331 9.42202C14.5825 8.6565 15.4309 8.1621 16.3969 8.15872L16.3969 8.1588ZM3.36709 8.18031V10.398L3.36724 10.3981C3.36709 10.4989 3.40364 10.5956 3.46868 10.6671C3.53388 10.7384 3.6223 10.7783 3.71445 10.7783C3.80659 10.7783 3.89502 10.7384 3.96022 10.6671C4.02526 10.5956 4.06181 10.4989 4.06165 10.3981V8.18113C4.88616 8.28343 5.60116 8.74629 6.08543 9.42002C5.88333 9.96455 5.76904 10.558 5.76904 11.1821V13.2406H0.693643V11.4601C0.693643 9.75253 1.85418 8.36614 3.36725 8.18048L3.36709 8.18031Z" fill="#C4C4C4"/>
</svg>
