<svg width="58" height="58" viewBox="0 0 58 58" fill="none" xmlns="http://www.w3.org/2000/svg">
<path fill-rule="evenodd" clip-rule="evenodd" d="M4.3048 0.439331C2.90542 0.804702 1.72375 1.71255 0.935281 3.02809C0.146118 4.34489 0.173949 3.76101 0.173949 18.9688V32.6611L2.31338 36.9443C3.49011 39.3002 4.57954 41.3959 4.73446 41.6015C4.88937 41.8072 5.16596 42.053 5.34916 42.1477L5.68232 42.32L5.7174 47.0641C5.7519 51.7179 5.75754 51.8206 6.01917 52.4696C6.51967 53.711 7.41084 54.5926 8.69832 55.12L9.31682 55.3732L24.9862 55.404L40.6556 55.4348V56.3527V57.2708H47.0958H53.5361V55.0298V52.7888L54.2297 51.0517C55.2431 48.5134 55.4021 47.8627 56.3148 42.5182C57.0595 38.158 57.1435 37.5099 57.1391 36.1675C57.1336 34.4597 56.9057 33.3983 56.2457 32.0053C55.619 30.6826 54.9747 29.8343 53.2862 28.1096L51.7025 26.4922L51.6705 17.0117C51.6386 7.54052 51.6382 7.53075 51.3853 6.91283C50.858 5.62558 49.977 4.73487 48.7349 4.23334L48.0734 3.96618L30.4041 3.9357L12.7348 3.90511L12.4138 3.24567C12.2341 2.87628 11.7842 2.27642 11.3916 1.88218C10.1376 0.623344 8.97847 0.228875 6.5567 0.236811C5.52787 0.240261 4.82554 0.303399 4.3048 0.439331ZM9.05185 2.37728C9.74176 2.694 10.5158 3.46775 10.8743 4.19918C11.1149 4.68979 11.1607 4.97167 11.1964 6.18002L11.2381 7.58883H6.62605H2.01403V6.39956C2.01403 4.60928 2.38848 3.67016 3.43157 2.84397C4.25489 2.19188 4.83992 2.0617 6.78671 2.09759C8.26682 2.12496 8.58849 2.16464 9.05185 2.37728ZM48.3199 6.00417C48.7823 6.2573 49.3474 6.82232 49.6005 7.28476C49.7848 7.62149 49.8005 8.82834 49.8287 24.8668C49.8587 41.9907 49.8575 42.0886 49.6275 42.3187C49.3425 42.6037 48.8019 42.6191 48.5651 42.349C47.9865 41.6891 48.0159 42.5047 48.0159 27.1123V12.8127L47.7571 12.2996C47.5681 11.9247 47.3601 11.7168 46.9851 11.5277L46.472 11.269H29.7632H13.0544V8.50737V5.74587L30.5064 5.77601C46.764 5.80419 47.9831 5.81982 48.3199 6.00417ZM23.1748 8.50886V9.4289H28.6951H34.2153V8.50886V7.58883H28.6951H23.1748V8.50886ZM3.8541 20.4694V31.5098H2.93406H2.01403V20.4694V9.4289H2.93406H3.8541V20.4694ZM7.53425 20.4694V31.5098H6.61421H5.69417V20.4694V9.4289H6.61421H7.53425V20.4694ZM11.2144 20.4694V31.5098H10.2944H9.37432V20.4694V9.4289H10.2944H11.2144V20.4694ZM46.1653 24.5233L46.155 35.9374L45.8315 34.6925C45.6532 34.0062 45.3591 33.2059 45.1765 32.9098C44.7826 32.2712 43.8609 31.6712 43.0983 31.5568C41.657 31.3407 40.1325 32.3108 39.735 33.6969C39.6741 33.9092 39.491 35.8716 39.3281 38.0577C39.1652 40.2439 39.0081 42.1491 38.9791 42.2915L38.9262 42.5503H25.0703H11.2144V39.4437V36.3372L12.1344 34.4999L13.0544 32.6626V22.8858V13.1091H29.6152H46.1758L46.1653 24.5233ZM22.4874 15.174C21.6396 15.4667 20.8496 16.2867 20.5974 17.1359C20.3231 18.0598 20.3249 28.4045 20.5997 29.3326C20.953 30.5263 22.31 31.5194 23.5696 31.506C24.2388 31.4989 25.0909 31.0905 30.4776 28.1948C36.2134 25.1119 36.5588 24.8811 36.8396 23.9435C37.0104 23.3736 37.0104 23.0854 36.8396 22.5154C36.5588 21.5779 36.2134 21.347 30.4776 18.264C27.5048 16.666 24.8137 15.2681 24.4974 15.1576C23.76 14.8999 23.2702 14.9039 22.4874 15.174ZM29.4385 19.7695C33.1024 21.7464 34.9909 22.8268 35.0625 22.9876C35.1299 23.1382 35.1299 23.3207 35.0625 23.4713C34.9909 23.6319 33.0971 24.7176 29.4385 26.6959C24.2223 29.5163 23.895 29.6758 23.4201 29.6292C23.0753 29.5954 22.8228 29.485 22.615 29.2772L22.3124 28.9746V23.2389C22.3124 17.6653 22.3188 17.4961 22.5423 17.2478C22.8231 16.9355 23.1231 16.8054 23.5774 16.7986C23.816 16.795 25.6236 17.7113 29.4385 19.7695ZM54.2774 32.123C54.9379 33.3048 55.2734 34.4746 55.3386 35.8225C55.389 36.861 55.3153 37.4461 54.5775 41.8602C53.6539 47.3866 53.5492 47.8377 52.6625 50.1118L52.0234 51.7506H47.0954H42.1673L41.8282 50.8593C40.5444 47.4845 40.4664 46.3319 41.036 39.1491C41.4555 33.859 41.4725 33.7685 42.1001 33.4826C42.6269 33.2426 43.0638 33.3198 43.4651 33.7236C43.7954 34.056 43.8917 34.3206 44.3337 36.1099C45.1061 39.236 46.1405 42.0301 47.0014 43.3151C47.4398 43.9695 48.2001 44.3346 49.1084 44.3269C50.1422 44.3183 50.9023 43.8607 51.3909 42.9527C51.635 42.4992 51.639 42.3988 51.6727 35.8225L51.7067 29.1522L52.7724 30.2447C53.4207 30.9091 54.0103 31.6452 54.2774 32.123ZM8.82804 36.9738C7.70192 39.2274 6.94094 40.6219 6.81569 40.6617C6.70483 40.697 6.52358 40.697 6.41272 40.6617C6.28748 40.6219 5.52649 39.2274 4.40037 36.9738L2.5895 33.3498H6.61421H10.6389L8.82804 36.9738ZM19.4372 33.5037C18.3626 33.8599 17.4979 34.6154 17.0798 35.5637L16.8388 36.1099H14.9466H13.0544V37.03V37.95H14.9489H16.8432L17.0882 38.5195C17.4 39.244 18.3404 40.141 19.0926 40.431C19.4481 40.5683 19.9521 40.6526 20.4147 40.6526C20.8774 40.6526 21.3814 40.5683 21.7369 40.431C22.4891 40.141 23.4296 39.244 23.7413 38.5195L23.9863 37.95H30.9409H37.8954V37.03V36.1099H30.9409H23.9863L23.7468 35.5531C23.444 34.8494 22.5956 34.0097 21.8593 33.6852C21.167 33.3801 20.0607 33.2972 19.4372 33.5037ZM21.1426 35.3468C22.3241 35.8406 22.6122 37.3896 21.6933 38.3086C20.9474 39.0546 19.8821 39.0546 19.1361 38.3086C17.714 36.8863 19.2832 34.57 21.1426 35.3468ZM9.66447 43.4702C9.80225 43.7086 10.1053 43.9783 10.4076 44.1315L10.9181 44.3903H24.8492H38.7805L38.8557 45.7083C38.9822 47.9214 39.3688 49.5819 40.2971 51.8973C40.4943 52.3892 40.6556 52.9722 40.6556 53.1928V53.5939L25.0436 53.5635C7.70445 53.5298 9.17018 53.5988 8.34813 52.7767C7.5715 52.0001 7.5952 52.173 7.55816 47.012L7.52458 42.3311L7.87673 42.1491C8.27901 41.9411 8.75939 41.3222 9.08991 40.5863L9.31682 40.0812L9.37432 41.5744C9.42123 42.7937 9.47449 43.1415 9.66447 43.4702ZM21.4454 46.4892C19.6831 47.3778 20.3801 50.3381 22.5998 51.3926L23.2324 51.6931H28.6951H34.1578L34.7903 51.393C35.6039 51.007 36.2449 50.3717 36.5972 49.6023C37.2295 48.2211 36.9755 47.0088 35.9447 46.4892L35.4316 46.2304H28.6951H21.9585L21.4454 46.4892ZM35.0908 48.4442C35.0049 48.8831 34.7285 49.2855 34.286 49.6159C33.9761 49.8473 33.8417 49.8531 28.6951 49.8531C23.5484 49.8531 23.4141 49.8473 23.1042 49.6159C22.6617 49.2855 22.3853 48.8831 22.2993 48.4442L22.2261 48.0704H28.6951H35.1641L35.0908 48.4442ZM51.696 54.5107V55.4307H47.0958H42.4956V54.5107V53.5907H47.0958H51.696V54.5107Z" fill="#00A99D"/>
</svg>
