<svg width="60" height="60" viewBox="0 0 60 60" fill="none" xmlns="http://www.w3.org/2000/svg">
<path id="Vector" fill-rule="evenodd" clip-rule="evenodd" d="M16.4531 0.932985C15.1201 1.40922 14.7992 1.92778 14.8082 3.59086C14.8137 4.6022 14.8649 4.88845 15.232 5.96444C15.7025 7.34311 16.5228 9.03748 17.5168 10.6834L18.1884 11.7956L17.833 12.5796C17.6375 13.0107 17.3578 13.8349 17.2118 14.4109C15.8071 19.9479 18.5542 25.713 23.7587 28.1507C26.8725 29.6091 30.5973 29.6291 33.6818 28.204L34.5214 27.8161L35.5296 28.4C38.4926 30.116 41.3917 31.0276 42.7779 30.6792C43.6243 30.4663 44.0249 30.1584 44.3682 29.4565C44.6512 28.8782 44.6722 28.7415 44.6185 27.8236C44.5324 26.3483 43.9289 24.7348 42.6613 22.5917C42.0863 21.6194 41.7269 21.317 41.2549 21.408C40.8359 21.4887 40.5056 21.8569 40.5056 22.2433C40.5056 22.3991 40.7886 23.0016 41.1347 23.5817C42.3963 25.6972 43.1169 27.8743 42.7854 28.5689C42.6529 28.8464 42.5542 28.8969 42.0837 28.927C41.0935 28.9905 39.3864 28.3848 36.8415 27.0669L36.225 26.7477L37.1958 25.7496C38.8119 24.0882 39.7826 22.3951 40.3588 20.2327C40.6178 19.2604 40.6562 18.8867 40.6562 17.3339C40.6562 15.7811 40.6178 15.4074 40.3588 14.4351C39.7967 12.3262 38.8601 10.6535 37.3663 9.09244C33.7214 5.28315 28.1072 4.3209 23.3698 6.69345C22.1274 7.31563 21.2569 7.97 20.1842 9.08819L19.2413 10.0711L18.7241 9.18859C17.6042 7.27768 16.6814 5.01922 16.5198 3.79419C16.3684 2.6454 16.8923 2.37652 18.4776 2.7895C19.2742 2.99697 20.7762 3.68459 21.9999 4.40187C22.9765 4.97436 23.4657 5.04762 23.8364 4.67684C24.0076 4.50572 24.0631 4.32378 24.0377 4.01948C24.0081 3.66757 23.9081 3.5268 23.4273 3.16062C22.5553 2.49647 19.8218 1.16679 18.8953 0.955985C17.9336 0.737246 17.025 0.728736 16.4531 0.932985ZM30.3851 7.33322C32.6123 7.68456 34.6233 8.76859 36.2037 10.4694C37.486 11.8493 38.3678 13.56 38.7305 15.3713C38.965 16.5417 38.9054 18.7051 38.6068 19.864C38.1661 21.574 36.9552 23.5668 35.6098 24.7965C34.5394 25.7748 34.6444 25.7803 33.0749 24.6635C28.7357 21.5757 24.7106 17.6346 21.4197 13.2513C20.8972 12.5555 20.4439 11.921 20.412 11.8413C20.3538 11.6952 20.7413 11.107 21.2843 10.5171L21.5781 10.1982L26.1286 14.7436C31.0606 19.6699 30.99 19.6146 31.5978 19.0067C31.7823 18.8223 31.8802 18.5943 31.8802 18.3488C31.8802 18.008 31.4681 17.5606 27.4237 13.5101C23.8427 9.9237 23.0012 9.02436 23.1399 8.93201C23.6462 8.59424 24.7483 8.02635 25.136 7.9033L25.5796 7.76253L28.0745 10.2481C30.3393 12.5043 30.6055 12.7338 30.9588 12.7338C31.4906 12.7338 31.8802 12.3537 31.8802 11.8352C31.8802 11.4726 31.6921 11.2468 29.7881 9.3251L27.696 7.2135L28.6668 7.21441C29.2007 7.21488 29.974 7.26836 30.3851 7.33322ZM20.2094 14.6313C23.2194 18.6261 27.2245 22.5837 31.3398 25.6301C32.8118 26.7197 32.7981 26.6829 31.8472 26.9895C31.6076 27.0668 31.0124 27.1999 30.5246 27.2854L29.6376 27.4409L27.5604 25.3775C25.3284 23.1601 25.1955 23.0785 24.5929 23.5526C24.3641 23.7324 24.2899 23.894 24.2899 24.212C24.2899 24.5949 24.4069 24.7506 25.5818 25.9286C26.429 26.7784 26.8021 27.2243 26.6659 27.2243C26.5515 27.2243 26.0608 27.0917 25.5751 26.9296C20.3411 25.1823 17.4849 19.5899 19.121 14.2927C19.2529 13.8658 19.3762 13.5345 19.3952 13.5564C19.414 13.5783 19.7805 14.062 20.2094 14.6313ZM33.1821 13.6754C32.8626 13.8299 32.6504 14.3378 32.7462 14.7189C32.7868 14.8815 33.1984 15.381 33.6605 15.8291C34.3702 16.5173 34.5621 16.6439 34.8955 16.6439C35.3937 16.6439 35.7904 16.2511 35.7904 15.7576C35.7904 15.3607 35.036 14.4336 34.2493 13.8637C33.7706 13.5169 33.5797 13.4832 33.1821 13.6754ZM11.5819 19.4421C11.3288 19.588 10.4756 20.1128 9.68589 20.6081L8.25007 21.509L6.08464 20.7906C4.16187 20.1527 3.88264 20.0874 3.59157 20.208C3.41124 20.2826 3.20101 20.4954 3.1242 20.6805C2.9993 20.9822 3.05737 21.2464 3.68012 23.208L4.37555 25.3986L3.40411 26.9466C2.09651 29.0305 2.0236 29.1919 2.19944 29.6163C2.42174 30.1529 2.71167 30.2141 5.06075 30.2188L7.21168 30.2232L8.47673 31.9375C9.84528 33.7922 10.1275 34.0248 10.7144 33.7816C11.1256 33.6112 11.2549 33.291 11.8001 31.0921C12.0176 30.2149 12.2386 29.4561 12.2912 29.4058C12.3438 29.3556 13.2074 29.0993 14.2102 28.8366C16.3978 28.2631 16.5307 28.207 16.7057 27.7844C16.9442 27.2086 16.7042 26.9194 14.8576 25.5567L13.1431 24.2917L13.1388 22.1408C13.1342 19.8515 13.0705 19.5166 12.5989 19.3016C12.2108 19.1248 12.1069 19.1392 11.5819 19.4421ZM20.876 19.5172C20.5635 19.6463 20.3797 19.9774 20.3797 20.4116C20.3797 20.6756 20.5665 20.926 21.2865 21.6267C22.1869 22.5028 22.4546 22.6324 22.9622 22.4377C23.2328 22.3338 23.5007 21.7497 23.4219 21.4355C23.3299 21.0694 21.7737 19.5479 21.4147 19.4733C21.2566 19.4406 21.0142 19.4603 20.876 19.5172ZM32.9675 20.3764C32.4679 20.8758 32.5773 21.1789 33.6414 22.243C34.7054 23.307 35.0085 23.4164 35.5079 22.9168C36.033 22.392 35.9117 22.0137 34.8912 20.9931C33.8707 19.9726 33.4925 19.8513 32.9675 20.3764ZM11.2943 23.3087C11.2943 24.1285 11.3498 24.9172 11.4178 25.0625C11.4856 25.2078 12.0568 25.7085 12.6872 26.1753C13.3175 26.642 13.8183 27.0375 13.8001 27.0538C13.7819 27.0704 13.2495 27.2212 12.617 27.3891C10.617 27.9198 10.7269 27.8107 10.2619 29.7256C10.1198 30.3107 9.96835 30.7894 9.92533 30.7894C9.88221 30.7894 9.48694 30.3014 9.04681 29.7048C8.60681 29.1083 8.12781 28.5649 7.98256 28.4973C7.83731 28.4297 7.04803 28.3743 6.22874 28.3743C5.40945 28.3743 4.73908 28.3456 4.73908 28.3105C4.73908 28.2755 5.07547 27.6953 5.48662 27.0214C5.89776 26.3475 6.23415 25.6711 6.23415 25.5183C6.23415 25.3656 6.04519 24.6511 5.81426 23.9306C5.58322 23.2101 5.42682 22.588 5.4666 22.5484C5.50639 22.5085 6.14823 22.6905 6.89277 22.9529C7.63743 23.2152 8.32619 23.4297 8.42325 23.4295C8.52032 23.4293 9.16723 23.0703 9.86082 22.6317C10.5544 22.1932 11.1607 21.831 11.2081 21.8267C11.2555 21.8225 11.2943 22.4895 11.2943 23.3087ZM48.5977 24.8287C48.1621 25.0396 48.096 25.4093 48.0914 27.661L48.087 29.8119L46.3727 31.077C44.5259 32.4396 44.286 32.7289 44.5244 33.3046C44.6995 33.7272 44.8325 33.7832 47.0201 34.3568C48.0229 34.6196 48.8863 34.8758 48.939 34.9261C48.9916 34.9763 49.2127 35.7351 49.4301 36.6124C49.9753 38.8113 50.1046 39.1315 50.5159 39.3019C51.1028 39.5449 51.385 39.3124 52.7535 37.4577L54.0185 35.7434L56.1694 35.739C58.5185 35.7343 58.8084 35.6731 59.0308 35.1365C59.2066 34.7122 59.1337 34.5506 57.8262 32.4667L56.8547 30.9188L57.5501 28.7282C58.1728 26.7667 58.231 26.5024 58.106 26.2008C58.0293 26.0156 57.819 25.8029 57.6387 25.7282C57.3476 25.6077 57.0682 25.6729 55.1446 26.3112L52.9782 27.03L51.383 26.0291C49.0878 24.5887 49.0907 24.59 48.5977 24.8287ZM51.4282 28.189C52.0857 28.6073 52.707 28.9494 52.809 28.9494C52.9108 28.9494 53.609 28.7428 54.3605 28.4904C55.1118 28.2379 55.7512 28.056 55.7812 28.0861C55.8113 28.1162 55.647 28.7303 55.416 29.4508C55.185 30.1713 54.9961 30.888 54.9961 31.0436C54.9961 31.282 55.7363 32.638 56.3259 33.4798C56.4169 33.6096 56.4912 33.7559 56.4912 33.8052C56.4912 33.8543 55.8208 33.8946 55.0015 33.8946C54.1822 33.8946 53.393 33.9499 53.2477 34.0175C53.1024 34.0851 52.6234 34.6286 52.1834 35.2251C51.7433 35.8216 51.3481 36.3096 51.3049 36.3096C51.2619 36.3096 51.1104 35.8309 50.9683 35.2459C50.5034 33.3309 50.6133 33.4401 48.6133 32.9093C47.9808 32.7414 47.4483 32.5906 47.4301 32.5741C47.412 32.5576 47.9127 32.1623 48.5431 31.6956C49.1734 31.2287 49.7446 30.728 49.8125 30.5828C49.8806 30.4371 49.9358 29.6452 49.9358 28.8167C49.9358 27.637 49.9677 27.3268 50.0843 27.3716C50.166 27.4031 50.7707 27.7708 51.4282 28.189ZM24.6767 31.269C24.4276 31.3896 24.1749 31.8153 24.1749 32.1145C24.1749 32.2049 25.0517 34.0323 26.1236 36.1753C27.849 39.625 28.1126 40.0884 28.4238 40.2172C29.0213 40.4647 29.6951 40.0076 29.6951 39.3548C29.6951 39.2643 28.8196 37.4398 27.7494 35.3003C26.186 32.1742 25.7444 31.383 25.5015 31.2723C25.1448 31.1098 25.0067 31.1091 24.6767 31.269ZM15.4715 32.186C15.0927 32.377 14.9142 32.8965 15.0854 33.3096C15.2364 33.6741 15.558 33.8368 16.3468 33.9475C16.6269 33.9868 17.1963 34.1547 17.6118 34.3206C20.6831 35.5469 23.4741 38.6657 25.6104 43.2582C26.1545 44.428 26.3368 44.7151 26.6057 44.8266C27.0537 45.0122 27.5587 44.7977 27.7477 44.3415C27.9128 43.943 27.7627 43.505 26.7928 41.5556C24.4576 36.8616 21.2411 33.5952 17.8496 32.4737C16.8147 32.1314 15.8188 32.0109 15.4715 32.186ZM32.9371 32.1979C32.754 32.2861 32.3527 32.963 31.6433 34.3807C31.0777 35.511 30.6151 36.5084 30.6151 36.5973C30.6151 37.2465 31.2902 37.7041 31.8845 37.4578C32.1821 37.3347 32.3869 37.0075 33.2646 35.2534C33.8314 34.1205 34.2953 33.1209 34.2953 33.0319C34.2953 32.7186 34.0366 32.3084 33.7597 32.1822C33.4217 32.0281 33.2842 32.0308 32.9371 32.1979ZM43.1507 34.8881C42.9925 34.9113 42.475 34.9876 42.0005 35.0579C38.3812 35.5931 34.7411 38.0873 32.3323 41.6829C31.5344 42.8738 30.6151 44.5932 30.6151 44.8948C30.6151 45.2153 30.8937 45.6172 31.205 45.7462C31.7731 45.9815 32.1039 45.745 32.6241 44.7316C33.777 42.4863 35.8217 40.0578 37.5865 38.8378C39.3949 37.5876 41.458 36.8422 43.4956 36.7028C44.7103 36.6198 45.0483 36.496 45.2248 36.0698C45.4025 35.6408 45.212 35.1299 44.8049 34.9446C44.5347 34.8214 43.7805 34.7956 43.1507 34.8881ZM3.51095 41.3916C3.37317 41.4582 3.19871 41.6617 3.12328 41.8438C2.94179 42.2818 3.15018 42.8024 3.57018 42.9607C3.73866 43.0242 4.7124 43.1062 5.73411 43.143C11.782 43.3605 17.2451 44.9123 22.139 47.8029C24.3253 49.0943 26.9026 51.2409 28.2575 52.8994C29.1617 54.0061 29.5341 54.2457 30.0115 54.0281C30.18 53.9514 30.3961 53.7766 30.492 53.6395C30.9584 52.9739 32.449 51.4168 33.4027 50.5992C38.793 45.9785 45.7122 43.4405 53.7311 43.1424C54.7114 43.106 55.6515 43.0242 55.82 42.9606C56.242 42.8017 56.4483 42.282 56.2653 41.8397C56.0201 41.2479 55.7032 41.1987 53.1124 41.349C47.8914 41.652 43.5635 42.6615 39.5006 44.5242C36.1734 46.0496 33.6682 47.7578 31.1598 50.2116L29.6918 51.6477L28.2847 50.2669C23.9897 46.0521 18.6512 43.3496 11.9843 42.0154C9.14675 41.4476 4.15532 41.08 3.51095 41.3916ZM0.755786 45.0696C0.326129 45.2776 0.253906 45.6555 0.253906 47.6951C0.253906 49.7989 0.326589 50.1391 0.815129 50.3231C0.980851 50.3855 2.07385 50.4645 3.24403 50.4986C12.3971 50.7658 19.4366 53.356 22.5366 57.5979C23.302 58.6452 24.2481 59.2788 25.4168 59.5265C26.238 59.7005 33.1521 59.7005 33.9734 59.5265C35.21 59.2643 36.0348 58.6838 37.0674 57.349C40.2411 53.2465 47.1223 50.7694 56.0886 50.5016C57.2905 50.4658 58.4093 50.3854 58.5751 50.3231C58.7408 50.2608 58.9349 50.0813 59.0063 49.9245C59.1812 49.5406 59.1812 45.8496 59.0063 45.4657C58.7732 44.954 58.4048 44.8948 55.9962 44.9816C45.7069 45.353 38.4081 47.4306 33.9694 51.2519C33.0346 52.0566 32.6169 52.64 32.4131 53.4257C32.2338 54.1172 32.0033 54.408 31.3626 54.7513C30.9761 54.9586 30.7099 54.9979 29.6951 54.9979C28.6205 54.9979 28.431 54.9663 27.9745 54.7103C27.3867 54.381 26.935 53.7826 26.935 53.3331C26.935 52.876 26.3133 52.0199 25.4281 51.2581C21.231 47.6456 14.3708 45.5587 5.0266 45.0517C2.43175 44.9109 1.07159 44.9166 0.755786 45.0696ZM5.60357 46.8927C11.6349 47.2786 16.5166 48.3661 20.3647 50.1807C22.8093 51.3335 24.968 53.0071 25.2207 53.9455C25.5574 55.1955 26.4506 56.1353 27.7145 56.5693C29.1401 57.0588 31.3513 56.8981 32.4552 56.2248C33.3054 55.7062 33.9128 54.8987 34.1695 53.9455C34.2644 53.5933 34.4892 53.2904 35.0344 52.7803C37.4193 50.5493 41.8232 48.6743 46.9458 47.7088C49.4676 47.2335 54.1392 46.775 56.4604 46.775H57.2961V47.6951V48.6152L56.9799 48.6156C56.806 48.6157 55.8356 48.6673 54.8236 48.7298C45.3846 49.3139 39.0491 51.8152 35.5367 56.3442C35.0252 57.0035 34.6991 57.3051 34.2622 57.523L33.675 57.8155H29.6951H25.7152L25.128 57.523C24.691 57.3051 24.3649 57.0035 23.8534 56.3442C20.341 51.8152 14.0056 49.3139 4.56658 48.7298C3.55454 48.6673 2.58413 48.6157 2.41024 48.6156L2.09398 48.6152V47.6951V46.775H2.92971C3.38939 46.775 4.59257 46.828 5.60357 46.8927Z" fill="#00A99D"/>
</svg>
