<svg width="56" height="56" viewBox="0 0 56 56" fill="none" xmlns="http://www.w3.org/2000/svg">
<path id="Vector" fill-rule="evenodd" clip-rule="evenodd" d="M27.6888 0.319637C27.0484 0.549187 26.6989 0.832326 26.302 1.44288L25.957 1.97352L13.9965 2.01009C2.58631 2.04494 2.0175 2.05655 1.6335 2.26103C1.07009 2.56108 0.619617 3.0035 0.329113 3.54172C0.0869184 3.99058 0.0801331 4.12687 0.0477018 9.149L0.0144653 14.2962L0.301287 14.583C0.679196 14.9609 1.20591 14.9627 1.58118 14.5873L1.86351 14.3051V9.34945V4.39379L2.14585 4.11157L2.42807 3.82923H14.1063H25.7845V4.74927V5.66931H15.152C7.60454 5.66931 4.43812 5.70634 4.23916 5.79696C4.08506 5.86723 3.90151 6.05078 3.83124 6.20488C3.65022 6.60234 3.65022 32.3374 3.83124 32.7348C3.90151 32.8889 4.08506 33.0725 4.23916 33.1427C4.63811 33.3245 46.9309 33.3245 47.3298 33.1427C47.4838 33.0725 47.6674 32.8889 47.7377 32.7348C47.826 32.5408 47.8654 30.5983 47.8654 26.4222V20.3899H48.7853H49.7054V27.4679V34.5459L49.4231 34.8281L49.1409 35.1105H25.7845H2.42807L2.14585 34.8281L1.86351 34.5459V28.2102V21.8745L1.58118 21.5923C1.20626 21.2172 0.679196 21.2187 0.302092 21.5958L0.0161911 21.8817L0.0485068 28.4099C0.0804778 34.8481 0.0843886 34.9443 0.329113 35.398C0.619617 35.9362 1.07009 36.3787 1.6335 36.6787C2.02244 36.8858 2.83345 36.8931 25.7845 36.8931C48.7355 36.8931 49.5465 36.8858 49.9355 36.6787C50.4988 36.3787 50.9493 35.9362 51.2398 35.398C51.4856 34.9425 51.4884 34.8666 51.5199 27.6789L51.5521 20.4196L52.3825 20.3659C53.6034 20.2867 54.3953 19.8096 54.9199 18.8373C55.1675 18.3785 55.1682 18.3569 55.1682 10.2695C55.1682 2.18203 55.1675 2.16052 54.9199 1.70164C54.6295 1.16343 54.179 0.721006 53.6156 0.420956C53.2307 0.216018 52.6616 0.205553 40.6776 0.181862C30.1212 0.161046 28.0705 0.182782 27.6888 0.319637ZM53.1032 2.2715L53.3855 2.55371V10.2695V17.9852L53.1032 18.2674L52.821 18.5499H44.7748C40.3494 18.5499 36.6371 18.585 36.5251 18.6279C36.4132 18.6709 35.2057 19.6616 33.8419 20.8295L31.3622 22.9528L31.303 21.0674C31.2704 20.0307 31.2027 19.0987 31.1529 18.9966C30.9918 18.6676 30.5139 18.5499 29.339 18.5499C28.2715 18.5499 28.1688 18.5296 27.9068 18.2674L27.6245 17.9852V10.2695V2.55371L27.9068 2.2715L28.1891 1.98916H40.5051H52.821L53.1032 2.2715ZM36.4011 4.86071C36.263 4.91878 36.0947 5.06933 36.0274 5.19526C35.852 5.52302 35.8588 14.8729 36.0348 15.259C36.2192 15.6637 36.7444 15.8631 37.1463 15.6809C37.3175 15.6034 39.1237 14.5007 41.1605 13.2303C44.0423 11.4328 44.8933 10.8485 44.9982 10.5951C45.2811 9.9124 45.1461 9.7974 41.0557 7.23602C38.9608 5.92416 37.113 4.82931 36.9496 4.80298C36.7862 4.77664 36.5393 4.80263 36.4011 4.86071ZM40.1146 8.78777C41.3413 9.55428 42.3451 10.2204 42.3451 10.2682C42.3451 10.3529 37.9453 13.1446 37.8119 13.1446C37.7751 13.1446 37.7449 11.8508 37.7449 10.2695C37.7449 8.68817 37.7763 7.39438 37.8145 7.39438C37.8528 7.39438 38.8879 8.02138 40.1146 8.78777ZM25.8089 12.9434C25.8395 17.9878 25.8574 18.4062 26.0563 18.7798C26.5993 19.7991 27.3872 20.2844 28.6309 20.3658L29.4646 20.4202V22.7551C29.4646 24.0393 29.512 25.2148 29.57 25.3671C29.6957 25.6977 30.2681 25.9626 30.6175 25.8517C30.7547 25.8081 32.2812 24.5614 34.0096 23.0812L37.1521 20.3899H41.5887H46.0253V25.9101V31.4303H36.8473H27.6694L27.5253 30.5729C27.0635 27.8249 24.7106 25.9101 21.7956 25.9101H21.1843V24.7489V23.5878L21.6483 23.0607C22.505 22.0874 23.0243 20.6485 23.0243 19.2481C23.0243 18.6184 23.0443 18.5694 23.3544 18.441C23.8624 18.2306 23.9444 17.9004 23.9444 16.0658C23.9444 13.5061 23.5463 12.2623 22.327 11.0124C21.1531 9.80902 19.8485 9.36268 17.5041 9.36268C15.6807 9.36268 14.7735 9.556 13.7736 10.1575C12.4663 10.9439 11.4609 12.3934 11.1885 13.8846C11.0229 14.791 11.0267 17.6521 11.1939 18.0191C11.2653 18.1759 11.4722 18.3658 11.6538 18.441C11.964 18.5694 11.9839 18.6184 11.9839 19.2481C11.9839 20.6485 12.5033 22.0874 13.3599 23.0607L13.824 23.5878V24.7489V25.9101H13.2126C10.2977 25.9101 7.94472 27.8249 7.48298 30.5729L7.33888 31.4303H6.44126H5.54366V19.4698V7.50938H15.6598H25.7759L25.8089 12.9434ZM19.9333 11.4946C20.695 11.8443 21.3589 12.4908 21.7253 13.2397C21.9968 13.7948 22.0494 14.0649 22.0871 15.0982L22.131 16.3072L21.4423 15.6518C21.0635 15.2914 20.6293 14.9652 20.4774 14.9271C20.2789 14.8773 19.797 15.053 18.7663 15.5512C16.8953 16.4555 15.8949 16.7097 14.2081 16.7097H12.9039V15.446C12.9039 13.6757 13.2935 12.7286 14.3543 11.9195C15.1478 11.3143 15.7683 11.1834 17.6766 11.2185C19.1481 11.2457 19.4799 11.2862 19.9333 11.4946ZM0.355343 16.9273C0.125905 17.113 0.0802487 17.2715 0.0428713 18.0128C0.00204545 18.82 0.0196406 18.9015 0.293467 19.1753C0.482422 19.3643 0.715414 19.4698 0.94347 19.4698C1.17153 19.4698 1.40453 19.3643 1.59348 19.1753C1.8673 18.9015 1.8849 18.82 1.84407 18.0128C1.8067 17.2715 1.76104 17.113 1.53161 16.9273C1.38394 16.8076 1.1192 16.7097 0.94347 16.7097C0.767744 16.7097 0.503009 16.8076 0.355343 16.9273ZM21.1596 19.2398C21.1269 20.1493 21.0568 20.5786 20.8756 20.9789C20.5326 21.7373 19.8858 22.4029 19.1327 22.7728C18.5749 23.0468 18.3416 23.0924 17.5041 23.0914C16.3724 23.0901 15.756 22.8653 14.9921 22.1751C14.275 21.5273 13.9064 20.671 13.8456 19.511L13.7951 18.5499H14.5444C15.9821 18.5499 18.0455 18.012 19.5167 17.2538L20.0918 16.9576L20.6473 17.4949L21.2029 18.0323L21.1596 19.2398ZM17.5041 24.9853C17.7255 24.9853 18.2301 24.9175 18.6255 24.8347L19.3442 24.684V25.7315C19.3442 26.9467 19.2253 27.1985 18.4951 27.5301C17.8913 27.8043 17.117 27.8043 16.5131 27.5301C15.783 27.1985 15.664 26.9467 15.664 25.7315V24.684L16.3828 24.8347C16.7782 24.9175 17.2827 24.9853 17.5041 24.9853ZM14.7072 28.4219C15.5337 29.2484 16.241 29.5281 17.5041 29.5281C18.7673 29.5281 19.4746 29.2484 20.3011 28.4219L20.9726 27.7502H21.8791C23.0026 27.7502 23.8298 28.0367 24.5587 28.6782C25.1585 29.2062 25.6335 30.0924 25.7414 30.8841L25.8158 31.4303H17.5041H9.19252L9.26693 30.8841C9.43795 29.6273 10.3748 28.4473 11.5649 27.9897C11.9728 27.8327 12.448 27.7603 13.096 27.7562L14.0355 27.7502L14.7072 28.4219ZM7.18259 38.9683C5.44763 39.4354 4.19626 40.7353 3.83285 42.4476C3.53752 43.84 3.75442 45.571 4.35221 46.5912C4.51264 46.865 4.62638 47.1036 4.60499 47.1213C4.5836 47.1392 4.26285 47.2475 3.89207 47.3621C2.0566 47.9296 0.589951 49.534 0.192608 51.4089C-0.00382034 52.3363 -0.0292361 54.4197 0.151091 54.8157C0.221359 54.9698 0.404911 55.1534 0.559012 55.2236C0.755207 55.313 3.07819 55.3513 8.30376 55.3513C13.5294 55.3513 15.8523 55.313 16.0486 55.2236C16.4758 55.029 16.5841 54.6456 16.5841 53.3272C16.5841 51.3255 16.1127 49.9348 15.0528 48.8097C14.5097 48.2332 13.4036 47.5486 12.6793 47.3408C12.3285 47.2401 12.0239 47.1424 12.0025 47.1234C11.9812 47.1046 12.0949 46.865 12.2554 46.5912C13.0901 45.1664 13.1186 42.7536 12.3191 41.1863C11.9923 40.5458 11.1002 39.6758 10.4177 39.332C9.36457 38.8014 8.26225 38.6776 7.18259 38.9683ZM26.5034 38.9683C26.1713 39.0578 25.6855 39.2401 25.4236 39.3736C24.8143 39.6845 23.9192 40.5788 23.6093 41.1863C22.8098 42.7536 22.8381 45.1664 23.673 46.5912C23.8335 46.865 23.9472 47.1036 23.9257 47.1213C23.9043 47.1392 23.5836 47.2475 23.2128 47.3621C22.4448 47.5995 21.414 48.2379 20.8755 48.8097C19.8156 49.9348 19.3442 51.3255 19.3442 53.3272C19.3442 54.6456 19.4524 55.029 19.8798 55.2236C20.076 55.313 22.399 55.3513 27.6245 55.3513C32.8502 55.3513 35.1731 55.313 35.3693 55.2236C35.7966 55.029 35.9049 54.6456 35.9049 53.3272C35.9049 51.3255 35.4335 49.9348 34.3736 48.8097C33.8305 48.2332 32.7243 47.5486 32.0001 47.3408C31.6493 47.2401 31.3447 47.1424 31.3233 47.1234C31.3019 47.1046 31.4157 46.865 31.5761 46.5912C32.4109 45.1664 32.4393 42.7536 31.6398 41.1863C31.3131 40.5458 30.421 39.6758 29.7384 39.332C28.6854 38.8014 27.583 38.6776 26.5034 38.9683ZM45.8241 38.9683C45.4921 39.0578 45.0063 39.2401 44.7444 39.3736C44.135 39.6845 43.24 40.5788 42.9301 41.1863C42.1306 42.7536 42.1589 45.1664 42.9938 46.5912C43.1542 46.865 43.268 47.1036 43.2465 47.1213C43.2251 47.1392 42.9044 47.2475 42.5336 47.3621C41.7656 47.5995 40.7348 48.2379 40.1962 48.8097C39.1363 49.9348 38.665 51.3255 38.665 53.3272C38.665 54.6456 38.7732 55.029 39.2006 55.2236C39.3967 55.313 41.7198 55.3513 46.9453 55.3513C52.1709 55.3513 54.4938 55.313 54.6901 55.2236C55.1174 55.029 55.2257 54.6456 55.2257 53.3272C55.2257 51.3255 54.7542 49.9348 53.6943 48.8097C53.1513 48.2332 52.0451 47.5486 51.3209 47.3408C50.97 47.2401 50.6655 47.1424 50.6441 47.1234C50.6227 47.1046 50.7365 46.865 50.8969 46.5912C51.7317 45.1664 51.7601 42.7536 50.9606 41.1863C50.6338 40.5458 49.7418 39.6758 49.0592 39.332C48.0062 38.8014 46.9038 38.6776 45.8241 38.9683ZM9.75202 41.0392C10.0963 41.2521 10.4436 41.6 10.6584 41.9472C10.9936 42.4896 11.0064 42.5593 11.0064 43.8509C11.0064 45.1423 10.9936 45.212 10.6584 45.7544C10.4426 46.1033 10.0962 46.4497 9.7473 46.6654C9.24899 46.9734 9.08315 47.0135 8.30376 47.0135C7.52438 47.0135 7.35854 46.9734 6.86023 46.6654C6.51165 46.4499 6.16469 46.103 5.94917 45.7547C5.63761 45.2511 5.5969 45.0777 5.56056 44.0977C5.51456 42.8567 5.62726 42.3623 6.10717 41.6998C6.89726 40.6092 8.56701 40.3065 9.75202 41.0392ZM29.0728 41.0392C29.4174 41.2523 29.7642 41.5998 29.9792 41.9478C30.3144 42.4903 30.3271 42.5603 30.3271 43.8514C30.3271 45.1428 30.3144 45.2125 29.9792 45.7546C29.7636 46.1032 29.4168 46.4498 29.0681 46.6654C28.5697 46.9734 28.4039 47.0135 27.6245 47.0135C26.8451 47.0135 26.6793 46.9734 26.181 46.6654C25.8325 46.4499 25.4855 46.103 25.27 45.7547C24.9584 45.2511 24.9176 45.0777 24.8814 44.0977C24.8353 42.8567 24.948 42.3623 25.428 41.6998C26.218 40.6092 27.8878 40.3065 29.0728 41.0392ZM48.3936 41.0392C48.7379 41.2521 49.0852 41.6 49.2999 41.9472C49.6352 42.4896 49.6479 42.5593 49.6479 43.8509C49.6479 45.1423 49.6352 45.212 49.2999 45.7544C49.0841 46.1033 48.7378 46.4497 48.3889 46.6654C47.8905 46.9734 47.7247 47.0135 46.9453 47.0135C46.1659 47.0135 46.0001 46.9734 45.5017 46.6654C45.1532 46.4499 44.8062 46.103 44.5907 45.7547C44.2791 45.2511 44.2384 45.0777 44.2022 44.0977C44.1561 42.8567 44.2688 42.3623 44.7487 41.6998C45.5388 40.6092 47.2086 40.3065 48.3936 41.0392ZM12.3704 49.1448C13.7961 49.6784 14.6355 50.8935 14.7224 52.55L14.7729 53.5112H8.31814H1.86351V52.7105C1.86351 51.5842 2.19863 50.7461 2.94892 49.9956C3.97569 48.969 4.19742 48.924 8.27064 48.917C11.4911 48.9115 11.7909 48.9281 12.3704 49.1448ZM31.6911 49.1448C33.1169 49.6784 33.9562 50.8935 34.0431 52.55L34.0937 53.5112H27.6389H21.1843V52.7105C21.1843 51.5842 21.5194 50.7461 22.2697 49.9956C23.2965 48.969 23.5182 48.924 27.5914 48.917C30.8119 48.9115 31.1117 48.9281 31.6911 49.1448ZM51.0488 49.1587C52.4678 49.6896 53.3855 51.0846 53.3855 52.7105V53.5112H46.931H40.4762L40.5267 52.55C40.5891 51.3603 40.9658 50.5125 41.7313 49.8387C42.7205 48.9679 42.9686 48.9238 46.9122 48.917C50.1961 48.9114 50.4231 48.9246 51.0488 49.1587Z" fill="#00A99D"/>
</svg>
